<?xml version="1.0" encoding="UTF-8" standalone="no"?>
<!-- Generator: Adobe Illustrator 23.1.1, SVG Export Plug-In . SVG Version: 6.00 Build 0)  -->

<svg
   xmlns:dc="http://purl.org/dc/elements/1.1/"
   xmlns:cc="http://creativecommons.org/ns#"
   xmlns:rdf="http://www.w3.org/1999/02/22-rdf-syntax-ns#"
   xmlns:svg="http://www.w3.org/2000/svg"
   xmlns="http://www.w3.org/2000/svg"
   xmlns:sodipodi="http://sodipodi.sourceforge.net/DTD/sodipodi-0.dtd"
   xmlns:inkscape="http://www.inkscape.org/namespaces/inkscape"
   version="1.1"
   id="Layer_1"
   x="0px"
   y="0px"
   viewBox="0 0 497.4 405.10001"
   xml:space="preserve"
   sodipodi:docname="day38-macintosh.svg"
   inkscape:version="0.92.3 (2405546, 2018-03-11)"
   width="497.39999"
   height="405.10001"><metadata
   id="metadata568"><rdf:RDF><cc:Work
       rdf:about=""><dc:format>image/svg+xml</dc:format><dc:type
         rdf:resource="http://purl.org/dc/dcmitype/StillImage" /><dc:title></dc:title></cc:Work></rdf:RDF></metadata><defs
   id="defs566" /><sodipodi:namedview
   pagecolor="#ffffff"
   bordercolor="#666666"
   borderopacity="1"
   objecttolerance="10"
   gridtolerance="10"
   guidetolerance="10"
   inkscape:pageopacity="0"
   inkscape:pageshadow="2"
   inkscape:window-width="1920"
   inkscape:window-height="1020"
   id="namedview564"
   showgrid="false"
   showborder="false"
   inkscape:zoom="0.828"
   inkscape:cx="172.53671"
   inkscape:cy="232.30915"
   inkscape:window-x="0"
   inkscape:window-y="0"
   inkscape:window-maximized="1"
   inkscape:current-layer="Layer_1"
   units="px"
   fit-margin-top="0"
   fit-margin-left="0"
   fit-margin-right="0"
   fit-margin-bottom="0" />
<style
   type="text/css"
   id="style309">
	.st0{fill:#FC8E22;}
	.st1{fill:#EEF2F4;}
	.st2{opacity:0.34;fill:#353535;}
	.st3{fill:#F7E4CB;}
	.st4{fill:#E0C5AA;}
	.st5{fill:none;stroke:#353535;stroke-width:6;stroke-linecap:round;stroke-linejoin:round;stroke-miterlimit:10;}
	.st6{fill:#353535;}
	.st7{opacity:0.3;fill:#282828;}
	.st8{fill:none;stroke:#353535;stroke-width:2;stroke-linecap:round;stroke-linejoin:round;stroke-miterlimit:10;}
	.st9{fill:#F2EBE1;}
	.st10{fill:#C6A485;}
	.st11{fill:#CF9742;}
	.st12{fill:#6E9546;}
	.st13{fill:#7C4D83;}
	.st14{fill:#4D8DB9;}
	.st15{fill:#CB6757;}
	.st16{fill:none;stroke:#FFFFFF;stroke-width:8;stroke-linecap:round;stroke-linejoin:round;stroke-miterlimit:10;}
	.st17{fill:#282828;}
</style>


<g
   id="g561"
   transform="translate(-270.7,-278.9)">
	<path
   id="XMLID_38_"
   class="st2"
   d="M 753.1,684 H 285.7 c -8.3,0 -15,-6.7 -15,-15 v 0 c 0,-8.3 6.7,-15 15,-15 h 467.4 c 8.3,0 15,6.7 15,15 v 0 c 0,8.3 -6.7,15 -15,15 z"
   inkscape:connector-curvature="0"
   style="opacity:0.34000017;fill:#353535" />
	<path
   id="XMLID_19_"
   class="st3"
   d="m 611.7,622.7 h -236 c -9.9,0 -18,-8.1 -18,-18 V 299.9 c 0,-9.9 8.1,-18 18,-18 h 236 c 9.9,0 18,8.1 18,18 v 304.8 c 0,9.9 -8.1,18 -18,18 z"
   inkscape:connector-curvature="0"
   style="fill:#f7e4cb" />
	<path
   id="XMLID_30_"
   class="st4"
   d="m 611.7,622.7 h -236 c -9.9,0 -18,-8.1 -18,-18 V 299.9 c 0,-9.9 8.1,-18 18,-18 h 236 c 9.9,0 18,8.1 18,18 v 304.8 c 0,9.9 -8.1,18 -18,18 z"
   inkscape:connector-curvature="0"
   style="fill:#e0c5aa" />
	<path
   id="XMLID_31_"
   class="st3"
   d="m 369.7,589.9 v -280 c 0,-5.7 4.6,-10.2 10.2,-10.2 h 227.5 c 5.7,0 10.2,4.6 10.2,10.2 v 280 c 0,5.7 -4.6,10.2 -10.2,10.2 H 380 c -5.7,0.1 -10.3,-4.5 -10.3,-10.2 z"
   inkscape:connector-curvature="0"
   style="fill:#f7e4cb" />
	<path
   id="XMLID_1_"
   class="st5"
   d="m 611.7,622.7 h -236 c -9.9,0 -18,-8.1 -18,-18 V 299.9 c 0,-9.9 8.1,-18 18,-18 h 236 c 9.9,0 18,8.1 18,18 v 304.8 c 0,9.9 -8.1,18 -18,18 z"
   inkscape:connector-curvature="0"
   style="fill:none;stroke:#353535;stroke-width:6;stroke-linecap:round;stroke-linejoin:round;stroke-miterlimit:10" />
	<path
   id="XMLID_34_"
   class="st4"
   d="m 394.4,498.7 c -5.4,0 -9.7,-4.3 -9.7,-9.7 V 326.4 c 0,-5.4 4.3,-9.7 9.7,-9.7 H 593 c 5.4,0 9.7,4.3 9.7,9.7 V 489 c 0,5.4 -4.3,9.7 -9.7,9.7 z"
   inkscape:connector-curvature="0"
   style="fill:#e0c5aa" />
	<path
   id="XMLID_22_"
   class="st6"
   d="m 412.4,488.1 c -9.5,0 -17.2,-7.7 -17.2,-17.2 V 344.4 c 0,-9.5 7.7,-17.2 17.2,-17.2 H 575 c 9.5,0 17.2,7.7 17.2,17.2 v 126.4 c 0,9.5 -7.7,17.2 -17.2,17.2 H 412.4 Z"
   inkscape:connector-curvature="0"
   style="fill:#353535" />
	<path
   id="XMLID_39_"
   class="st7"
   d="m 575,327.2 h -20.2 c 3.5,7.3 5.5,15.5 5.5,24.2 v 0 c 0,57.8 -46.9,104.7 -104.7,104.7 h -36.2 c -8.7,0 -16.9,-2 -24.2,-5.5 v 20.2 c 0,9.5 7.7,17.2 17.2,17.2 H 575 c 9.5,0 17.2,-7.7 17.2,-17.2 V 344.4 c 0.1,-9.5 -7.6,-17.2 -17.2,-17.2 z"
   inkscape:connector-curvature="0"
   style="opacity:0.3;fill:#282828" />
	<path
   id="XMLID_7_"
   class="st4"
   d="m 564.2,539.7 v -3.1 h -68.7 v -12 h 68.7 v -3.1 c 0,-1 0.8,-1.9 1.9,-1.9 h 36.2 c 1,0 1.9,0.8 1.9,1.9 v 18.2 c 0,1 -0.8,1.9 -1.9,1.9 h -36.2 c -1.1,0 -1.9,-0.8 -1.9,-1.9 z"
   inkscape:connector-curvature="0"
   style="fill:#e0c5aa" />
	<rect
   id="XMLID_10_"
   x="594.70001"
   y="527.59998"
   class="st6"
   width="4.3000002"
   height="6"
   style="fill:#353535" />
	<path
   id="XMLID_5_"
   class="st8"
   d="m 412.8,575.9 h -19.4 c -1,0 -1.9,-0.8 -1.9,-1.9 v -19.4 c 0,-1 0.8,-1.9 1.9,-1.9 h 19.4 c 1,0 1.9,0.8 1.9,1.9 V 574 c 0,1 -0.8,1.9 -1.9,1.9 z"
   inkscape:connector-curvature="0"
   style="fill:none;stroke:#353535;stroke-width:2;stroke-linecap:round;stroke-linejoin:round;stroke-miterlimit:10" />
	<path
   id="XMLID_4_"
   class="st9"
   d="m 658.4,669 c 0,-9.9 10.5,-18 23.5,-18 13,0 23.5,8.1 23.5,18 z"
   inkscape:connector-curvature="0"
   style="fill:#f2ebe1" />
	<path
   id="XMLID_14_"
   class="st5"
   d="m 658.4,669 c 0,-9.9 10.5,-18 23.5,-18 13,0 23.5,8.1 23.5,18 z"
   inkscape:connector-curvature="0"
   style="fill:none;stroke:#353535;stroke-width:6;stroke-linecap:round;stroke-linejoin:round;stroke-miterlimit:10" />
	<rect
   id="XMLID_24_"
   x="374.70001"
   y="623.90002"
   class="st4"
   width="238"
   height="24"
   style="fill:#e0c5aa" />
	<rect
   id="XMLID_12_"
   x="374.70001"
   y="623.90002"
   class="st10"
   width="238"
   height="9.8999996"
   style="fill:#c6a485" />
	<rect
   id="XMLID_9_"
   x="374.70001"
   y="623.90002"
   class="st5"
   width="238"
   height="24"
   style="fill:none;stroke:#353535;stroke-width:6;stroke-linecap:round;stroke-linejoin:round;stroke-miterlimit:10" />
	<rect
   id="XMLID_29_"
   x="417.70001"
   y="639"
   class="st4"
   width="152"
   height="12"
   style="fill:#e0c5aa" />
	<rect
   id="XMLID_28_"
   x="607.70001"
   y="639"
   class="st4"
   width="20"
   height="12"
   style="fill:#e0c5aa" />
	<rect
   id="XMLID_27_"
   x="578.70001"
   y="639"
   class="st4"
   width="20"
   height="12"
   style="fill:#e0c5aa" />
	<rect
   id="XMLID_26_"
   x="388.70001"
   y="639"
   class="st4"
   width="20"
   height="12"
   style="fill:#e0c5aa" />
	<rect
   id="XMLID_25_"
   x="359.70001"
   y="639"
   class="st4"
   width="20"
   height="12"
   style="fill:#e0c5aa" />
	<rect
   id="XMLID_23_"
   x="339.5"
   y="651"
   class="st3"
   width="308.29999"
   height="18"
   style="fill:#f7e4cb" />
	<rect
   id="XMLID_11_"
   x="339.5"
   y="651"
   class="st5"
   width="308.29999"
   height="18"
   style="fill:none;stroke:#353535;stroke-width:6;stroke-linecap:round;stroke-linejoin:round;stroke-miterlimit:10" />
	<rect
   id="XMLID_13_"
   x="417.70001"
   y="639"
   class="st5"
   width="152"
   height="12"
   style="fill:none;stroke:#353535;stroke-width:6;stroke-linecap:round;stroke-linejoin:round;stroke-miterlimit:10" />
	<rect
   id="XMLID_15_"
   x="607.70001"
   y="639"
   class="st5"
   width="20"
   height="12"
   style="fill:none;stroke:#353535;stroke-width:6;stroke-linecap:round;stroke-linejoin:round;stroke-miterlimit:10" />
	<rect
   id="XMLID_16_"
   x="578.70001"
   y="639"
   class="st5"
   width="20"
   height="12"
   style="fill:none;stroke:#353535;stroke-width:6;stroke-linecap:round;stroke-linejoin:round;stroke-miterlimit:10" />
	<rect
   id="XMLID_18_"
   x="388.70001"
   y="639"
   class="st5"
   width="20"
   height="12"
   style="fill:none;stroke:#353535;stroke-width:6;stroke-linecap:round;stroke-linejoin:round;stroke-miterlimit:10" />
	<rect
   id="XMLID_17_"
   x="359.70001"
   y="639"
   class="st5"
   width="20"
   height="12"
   style="fill:none;stroke:#353535;stroke-width:6;stroke-linecap:round;stroke-linejoin:round;stroke-miterlimit:10" />
	<path
   id="XMLID_37_"
   class="st11"
   d="m 405.3,562.5 c -0.9,-0.8 -1.5,-1.9 -1.8,-3.1 h -6.3 c -0.7,0.9 -1.3,2 -1.6,3.1 z"
   inkscape:connector-curvature="0"
   style="fill:#cf9742" />
	<path
   id="XMLID_55_"
   class="st12"
   d="m 403.3,558.1 c 0,-0.5 0.1,-1.1 0.2,-1.5 -0.1,0 -0.3,0 -0.4,0 -2.4,0 -4.5,1.1 -5.9,2.8 h 6.3 c -0.1,-0.5 -0.2,-0.9 -0.2,-1.3 z"
   inkscape:connector-curvature="0"
   style="fill:#6e9546" />
	<path
   id="XMLID_59_"
   class="st13"
   d="M 397.2,569.3 H 409 c 0.8,-0.9 1.3,-2 1.6,-3.1 h -15 c 0.3,1.1 0.9,2.2 1.6,3.1 z"
   inkscape:connector-curvature="0"
   style="fill:#7c4d83" />
	<path
   id="XMLID_61_"
   class="st14"
   d="m 403.1,572 c 2.4,0 4.5,-1.1 5.9,-2.7 h -11.8 c 1.5,1.7 3.6,2.7 5.9,2.7 z"
   inkscape:connector-curvature="0"
   style="fill:#4d8db9" />
	<path
   id="XMLID_64_"
   class="st15"
   d="m 395.4,564.3 c 0,0.6 0.1,1.3 0.2,1.9 h 15 c 0.1,-0.6 0.2,-1.2 0.2,-1.9 0,-0.1 0,-0.3 0,-0.4 -0.5,0.1 -1,0.2 -1.5,0.2 -1.6,0 -3,-0.6 -4,-1.6 h -9.6 c -0.2,0.6 -0.3,1.2 -0.3,1.8 z"
   inkscape:connector-curvature="0"
   style="fill:#cb6757" />
	<line
   id="XMLID_20_"
   class="st16"
   x1="423.20001"
   y1="348.20001"
   x2="439.29999"
   y2="348.20001"
   style="fill:none;stroke:#ffffff;stroke-width:8;stroke-linecap:round;stroke-linejoin:round;stroke-miterlimit:10" />
	<line
   id="XMLID_21_"
   class="st16"
   x1="456"
   y1="348.20001"
   x2="513.40002"
   y2="348.20001"
   style="fill:none;stroke:#ffffff;stroke-width:8;stroke-linecap:round;stroke-linejoin:round;stroke-miterlimit:10" />
	<path
   id="XMLID_8_"
   class="st6"
   d="m 599,529.6 h -31.4 v -4.8 c 0,-1 0.8,-1.9 1.9,-1.9 h 27.6 c 1,0 1.9,0.8 1.9,1.9 z"
   inkscape:connector-curvature="0"
   style="fill:#353535" />
	<path
   id="XMLID_32_"
   class="st6"
   d="m 597.1,538.3 h -27.6 c -1,0 -1.9,-0.8 -1.9,-1.9 v -5.8 H 599 v 5.8 c 0,1 -0.9,1.9 -1.9,1.9 z"
   inkscape:connector-curvature="0"
   style="fill:#353535" />
	<path
   id="XMLID_36_"
   class="st5"
   d="M 398.7,622.7"
   inkscape:connector-curvature="0"
   style="fill:none;stroke:#353535;stroke-width:6;stroke-linecap:round;stroke-linejoin:round;stroke-miterlimit:10" />
	<path
   id="XMLID_6_"
   class="st17"
   d="m 595.1,533.6 h -94.6 c -0.5,0 -1,-0.4 -1,-1 v -4.1 c 0,-0.5 0.4,-1 1,-1 h 94.6 c 0.5,0 1,0.4 1,1 v 4.1 c -0.1,0.6 -0.5,1 -1,1 z"
   inkscape:connector-curvature="0"
   style="fill:#282828" />
</g>
<path
   style="fill:none;stroke-width:1.20772946"
   d="M -270.45845,221.22077 V -278.17536 H 228.93768 728.33382 V 221.22077 720.61691 H 228.93768 -270.45845 Z m 106.28019,461.34218 0.60386,-6.02817 1.50917,4.10392 c 1.0604,2.88357 1.13274,4.55745 0.24328,5.62919 -1.98319,2.38959 0.69745,3.17645 2.74604,0.80605 1.46071,-1.69017 4.55948,-8.9754 4.55948,-10.71937 0,-1.65386 -2.68519,0.095 -3.49118,2.27391 l -0.99789,2.69755 -0.85617,-2.69755 c -0.4709,-1.48366 -1.63477,-2.69756 -2.58638,-2.69756 -0.95162,0 -1.73021,-0.81522 -1.73021,-1.8116 0,-0.99637 -0.54348,-1.81159 -1.20773,-1.81159 -0.66425,0 -1.20773,2.95705 -1.20773,6.57123 0,3.61418 -0.54348,6.90713 -1.20773,7.31766 -2.00187,1.23722 -1.35781,3.2249 0.9058,2.79546 1.57271,-0.29837 2.26804,-1.94348 2.71739,-6.42913 z m -46.54839,4.31973 c 0.38259,-0.61904 -0.75334,-1.29839 -2.5243,-1.50966 -7.01962,-0.83743 -6.7763,-8.64365 0.28146,-9.02982 2.29171,-0.1254 2.59286,0.004 0.87169,0.37443 -3.74105,0.80524 -5.99266,3.7552 -4.21957,5.52828 2.30041,2.30042 6.71211,2.371 8.34817,0.13355 1.38587,-1.89529 1.52041,-1.83622 1.52041,0.66764 0,3.99231 2.93432,2.48463 3.4294,-1.76205 l 0.41009,-3.51757 1.64514,3.91263 c 1.23146,2.92879 2.40394,3.91264 4.66275,3.91264 1.65969,0 3.50713,-0.87471 4.10542,-1.94379 0.99981,-1.78657 1.14813,-1.78657 1.8337,0 0.49072,1.27881 2.20499,1.94379 5.01086,1.94379 4.17063,0 4.26496,-0.10684 4.26496,-4.83091 0,-4.72407 -0.0943,-4.83092 -4.26496,-4.83092 -2.80587,0 -4.52014,0.66499 -5.01086,1.94379 -0.66452,1.73172 -0.85932,1.74114 -1.78543,0.0862 -1.56178,-2.79075 -14.26949,-2.64078 -14.38281,0.16974 -0.0614,1.52235 -0.40814,1.35047 -1.39229,-0.69014 -1.5382,-3.18942 -8.19508,-3.80747 -10.54266,-0.97883 -2.33209,2.81 -1.04264,8.28081 2.35485,9.99102 3.63892,1.83173 4.47629,1.89859 5.38398,0.42991 z m 33.26336,-7.93244 c 0,-3.65338 -0.54347,-6.64251 -1.20772,-6.64251 -0.66426,0 -1.20773,2.98913 -1.20773,6.64251 0,3.65338 0.54347,6.64251 1.20773,6.64251 0.66425,0 1.20772,-2.98913 1.20772,-6.64251 z m 8.21149,2.63164 c 1.74571,-4.82765 1.79291,-5.65096 0.32401,-5.65096 -0.61949,0 -1.515,1.22282 -1.99003,2.71739 l -0.86368,2.71739 -1.21386,-2.71739 c -1.18672,-2.65664 -3.2602,-3.7314 -3.2602,-1.68988 0,2.70835 2.81572,8.63432 4.10258,8.63432 0.79796,0 2.10349,-1.80489 2.90118,-4.01087 z m 106.561216,0.68962 c 0.0367,-3.17033 0.11848,-3.2155 1.79912,-0.99396 1.89991,2.5113 1.96918,2.49184 3.98628,-1.11957 1.21466,-2.17472 1.35278,-2.02426 1.38584,1.50966 0.0202,2.15882 0.58021,3.92512 1.24446,3.92512 0.66425,0 1.20773,-2.98913 1.20773,-6.64251 0,-7.15796 -1.14072,-8.21182 -4.24862,-3.92512 l -1.97014,2.71739 -1.86885,-2.71739 c -2.93952,-4.2742 -3.98968,-3.24103 -3.98968,3.92512 0,3.65338 0.54347,6.64251 1.20773,6.64251 0.66425,0 1.22501,-1.49456 1.24613,-3.32125 z m 20.493,-1.50966 c 0,-4.48586 -0.24155,-4.83092 -3.38165,-4.83092 -3.78107,0 -6.28019,1.92239 -6.28019,4.83092 0,2.90852 2.49912,4.83091 6.28019,4.83091 3.1401,0 3.38165,-0.34506 3.38165,-4.83091 z m 14.33087,-2.0034 c -0.13492,-4.1286 -0.69909,-6.35595 -1.53537,-6.0616 -0.72713,0.25594 -1.1645,1.3508 -0.97192,2.43303 0.28251,1.58756 -0.35851,1.82595 -3.31826,1.23399 -4.07407,-0.8148 -7.2976,1.0865 -7.2976,4.3043 0,3.35988 2.51926,4.83435 8.06952,4.72294 l 5.26691,-0.10568 -0.21328,-6.52694 z m 4.00678,3.6062 c 0.55662,-4.70185 3.40148,-5.11645 3.40148,-0.49571 0,2.0481 0.57628,3.72382 1.28064,3.72382 0.74132,0 1.12277,-1.90725 0.90579,-4.52898 -0.34221,-4.13476 -0.71651,-4.56193 -4.29996,-4.90744 -3.84645,-0.37087 -3.92512,-0.28009 -3.92512,4.52898 0,5.45137 2.03706,6.74854 2.63717,1.67933 z m 13.06331,1.77884 c 0,-1.12721 0.32207,-1.12721 1.4492799,0 2.13569,2.13569 6.70271,1.76189 8.11582,-0.66425 1.16044999,-1.99237 1.23312999,-1.98777 1.26773999,0.0802 0.028,1.67418 0.82335,2.10324 3.35798001,1.81159 2.93093,-0.33723 3.31458,-0.87892 3.26439,-4.6092 -0.046,-3.41599 -0.5684,-4.30124 -2.72279,-4.61369 -1.56718,-0.22729 -2.96092001,0.38212 -3.38169001,1.47862 -0.63069,1.64356 -0.92741,1.65363 -2.49632999,0.0847 -2.06785,-2.06785 -5.94522,-2.34876 -7.07983,-0.51291 -0.47825,0.77383 -1.7086999,0.20083 -3.1585999,-1.47092 -3.87249,-4.46502 -5.35605,-0.006 -2.78005,8.35545 0.59482,1.93078 4.16408,1.98255 4.16408,0.0604 z m 21.96085,-1.6076 c 0.52158,-4.17217 2.70919,-4.35406 3.17976,-0.26438 0.58454,5.08017 2.83514,3.95145 2.40815,-1.20773 -0.3011,-3.63795 -0.90947,-4.60492 -3.09224,-4.91492 -1.49456,-0.21226 -2.71739,-1.16334 -2.71739,-2.11352 0,-0.95019 -0.54348,-1.7276 -1.2077301,-1.7276 -0.66425,0 -1.20773,2.98913 -1.20773,6.64251 0,6.67666 1.9237601,9.2923 2.6371801,3.58564 z M 571.32899,678.8496 c 0,-4.27231 -0.47574,-6.58458 -1.29831,-6.31039 -0.71407,0.23802 -1.25755,0.82679 -1.20773,1.30837 0.0498,0.48159 0.0906,3.32126 0.0906,6.31039 0,2.98913 0.54347,5.43478 1.20773,5.43478 0.66425,0 1.20773,-3.03442 1.20773,-6.74315 z m 3.62318,0.10061 c 0,-3.65339 -0.54347,-6.64252 -1.20773,-6.64252 -0.66425,0 -1.20773,2.98913 -1.20773,6.64252 0,3.65338 0.54348,6.64251 1.20773,6.64251 0.66426,0 1.20773,-2.98913 1.20773,-6.64251 z m 4.83092,0 c 0,-5.0993 -0.42087,-6.64252 -1.81159,-6.64252 -1.39073,0 -1.8116,1.54322 -1.8116,6.64252 0,5.09929 0.42087,6.64251 1.8116,6.64251 1.39072,0 1.81159,-1.54322 1.81159,-6.64251 z m 3.62319,0 c 0,-3.65339 -0.54348,-6.64252 -1.20773,-6.64252 -0.66425,0 -1.20773,2.98913 -1.20773,6.64252 0,3.65338 0.54348,6.64251 1.20773,6.64251 0.66425,0 1.20773,-2.98913 1.20773,-6.64251 z m 18.84972,5.22456 c 0.41062,-0.66438 0.14175,-1.8128 -0.59746,-2.55202 -1.87521,-1.87517 -1.67525,-3.27637 0.46755,-3.27637 1.20773,0 1.81159,1.20773 1.81159,3.62319 0,2.81803 0.53676,3.62318 2.41546,3.62318 1.3285,0 2.41546,-0.54347 2.41546,-1.20773 0,-0.66425 -0.54348,-1.20773 -1.20773,-1.20773 -1.74586,0 -1.48837,-4.53608 0.29115,-5.12925 1.07774,-0.35925 0.90808,-1.09043 -0.60387,-2.60238 -1.76069,-1.76068 -2.3668,-1.83868 -3.72601,-0.47945 -0.96193,0.96193 -3.91422,1.54616 -7.24638,1.434 -5.43627,-0.183 -5.6231,-0.0735 -5.6231,3.2939 0,4.38642 -2.12377,4.59183 -2.63718,0.25507 -0.58755,-4.96321 -3.40147,-5.04027 -3.40147,-0.0931 0,2.26953 0.34163,4.46804 0.75918,4.88559 1.24214,1.24214 16.07255,0.74423 16.88281,-0.56682 z m 10.13579,-1.60134 c 0,-3.75385 1.45685,-3.89879 3.03486,-0.30193 0.87628,1.99733 2.3923,2.81671 5.72118,3.09223 4.37305,0.36192 4.5339,0.23718 4.67187,-3.62319 l 0.1429,-3.99803 0.77221,3.60844 c 0.42472,1.98464 1.62682,3.77302 2.67135,3.97418 1.52872,0.29441 1.85434,-0.71019 1.66936,-5.15038 -0.27115,-6.50878 -1.01692,-7.58463 -3.70891,-5.35047 -1.09547,0.90916 -3.58163,1.48625 -5.5248,1.28242 -1.94316,-0.20383 -4.32087,0.28326 -5.28379,1.08243 -1.23666,1.02633 -1.75077,1.05493 -1.75077,0.0974 0,-0.74558 -1.08696,-1.3556 -2.41546,-1.3556 -2.01289,0 -2.41546,0.80515 -2.41546,4.83092 0,2.657 0.54348,4.83091 1.20773,4.83091 0.66425,0 1.20773,-1.35869 1.20773,-3.01932 z m 22.94686,-2.41546 c 0,-2.98913 0.0408,-5.8288 0.0906,-6.31039 0.0498,-0.48158 -0.49366,-1.07035 -1.20773,-1.30837 -0.82257,-0.27419 -1.29831,2.03808 -1.29831,6.31039 0,3.70873 0.54348,6.74315 1.20773,6.74315 0.66425,0 1.20773,-2.44565 1.20773,-5.43478 z m 10.77282,3.32126 c 1.17241,-2.01289 1.23277,-2.01289 1.26774,0 0.0202,1.16244 0.85195,2.11352 1.84833,2.11352 1.20773,0 1.81159,-1.20773 1.81159,-3.62318 0,-1.99276 0.54348,-3.62319 1.20773,-3.62319 0.66425,0 1.20773,1.57005 1.20773,3.48899 v 3.489 h 7.90616 c 5.37677,0 7.75947,-0.44005 7.44766,-1.37547 -0.25217,-0.75651 -0.95668,-1.38379 -1.56557,-1.39396 -2.41148,-0.0403 -3.86803,-1.91641 -3.26831,-4.20977 0.50854,-1.94466 0.0362,-2.41425 -2.4282,-2.41425 -1.68274,0 -3.30862,0.67935 -3.61308,1.50966 -0.44283,1.20773 -0.87359,1.20773 -2.15378,0 -2.35726,-2.22383 -8.36353,-1.94505 -8.36353,0.3882 0,1.72533 -0.17253,1.72533 -1.89786,0 -3.41548,-3.41548 -8.9717,-1.59903 -8.9717,2.93306 0,4.64129 7.2456,6.69973 9.56509,2.71739 z m 32.46389,0.66425 c 1.12721,-1.12721 1.44928,-1.11021 1.44928,0.0766 0,0.99389 1.36833,1.39386 3.92512,1.14734 3.43594,-0.33129 3.92512,-0.8136 3.92512,-3.87001 0,-4.49347 -3.24376,-6.76152 -6.63833,-4.64157 -1.93694,1.20962 -2.90235,1.20962 -4.83928,0 -4.45261,-2.7807 -9.34917,2.93144 -5.98632,6.98342 1.76467,2.12628 6.17794,2.29077 8.16441,0.3043 z m -890.44054,-22.76327 c 0.9437,-2.97334 -1.26546,-5.98069 -4.39333,-5.98069 -1.78636,0 -2.26758,0.89704 -2.26758,4.22705 0,3.67248 0.38545,4.22705 2.93794,4.22705 1.90019,0 3.21523,-0.87367 3.72297,-2.47341 z m 7.52991,1.64089 c -2.41611,-0.63139 -2.87826,-2.78129 -0.60386,-2.80916 1.00644,-0.0123 0.9058,-0.40874 -0.30193,-1.18923 -1.20773,-0.7805 -1.30838,-1.17691 -0.30194,-1.18924 0.83032,-0.0102 1.50967,-0.56197 1.50967,-1.22622 0,-0.66425 -1.08696,-1.20773 -2.41546,-1.20773 -1.95537,0 -2.41546,0.80515 -2.41546,4.22705 0,3.84014 0.304,4.21423 3.32125,4.08696 2.04336,-0.0862 2.50805,-0.35261 1.20773,-0.69243 z m 9.47314,-0.55842 c 0.47281,-0.76502 -0.14247,-2.12372 -1.36728,-3.01932 -1.22482,-0.89562 -1.57959,-1.62838 -0.78838,-1.62838 0.79121,0 1.43856,-0.54348 1.43856,-1.20773 0,-0.66425 -1.08695,-1.20773 -2.41546,-1.20773 -3.01161,0 -3.18765,3.32453 -0.30193,5.70216 2.01288,1.65848 2.01288,1.70976 0,1.07685 -1.16244,-0.36551 -2.11353,-0.13813 -2.11353,0.50526 0,1.64307 4.50691,1.46344 5.54802,-0.22111 z m 3.76027,-4.93555 c -0.28888,-1.50231 -0.5362,-0.55756 -0.54961,2.09944 -0.0134,2.657 0.22295,3.88617 0.52524,2.73147 0.30228,-1.15469 0.31325,-3.32861 0.0244,-4.83091 z m 11.22312,5.82141 c 0,-0.2778 0.32988,-1.36476 0.73307,-2.41546 0.52553,-1.36951 0.0126,-1.91037 -1.81159,-1.91037 -1.39957,0 -2.54467,0.54347 -2.54467,1.20772 0,0.66426 -0.58877,1.20773 -1.30838,1.20773 -2.4156,0 -0.35647,-2.94416 2.60565,-3.72556 2.5311,-0.6677 2.64218,-0.89524 0.81625,-1.67219 -3.17826,-1.35237 -5.73671,0.1403 -5.73671,3.34697 0,1.57076 0.36232,3.21826 0.80515,3.66109 0.87087,0.87087 6.44123,1.13036 6.44123,0.30007 z m 6.03864,-0.85052 c 0,-0.99713 0.42862,-0.9999 1.62079,-0.0109 2.02521,1.68117 3.21013,0.57714 3.21013,-2.99059 0,-3.24373 -2.39767,-5.25146 -2.45387,-2.0548 -0.0364,2.07235 -0.12099,2.07602 -1.6428,0.0713 -2.37193,-3.1246 -3.14971,-2.60269 -3.14971,2.11355 0,2.32488 0.54348,4.22705 1.20773,4.22705 0.66425,0 1.20773,-0.61002 1.20773,-1.3556 z m 11.77537,0.52308 c -2.41612,-0.63139 -2.87827,-2.78129 -0.60387,-2.80916 1.00644,-0.0123 0.9058,-0.40874 -0.30193,-1.18923 -1.20773,-0.7805 -1.30837,-1.17691 -0.30193,-1.18924 0.83031,-0.0102 1.50966,-0.56197 1.50966,-1.22622 0,-0.66425 -1.08696,-1.20773 -2.41546,-1.20773 -1.95537,0 -2.41546,0.80515 -2.41546,4.22705 0,3.84014 0.304,4.21423 3.32126,4.08696 2.04335,-0.0862 2.50804,-0.35261 1.20773,-0.69243 z m 10.37425,-1.78364 c 1.56315,-2.49438 -0.83175,-5.83794 -4.18156,-5.83794 -1.79478,0 -2.26757,0.89886 -2.26757,4.31105 0,3.72462 0.35286,4.25855 2.59404,3.92512 1.42673,-0.21226 3.16152,-1.29146 3.85509,-2.39823 z m 13.85686,-1.30896 c -0.29006,-3.00839 -1.01312,-4.01525 -3.09585,-4.31105 -2.3826,-0.33838 -2.71739,0.14521 -2.71739,3.92512 0,3.82172 0.3514,4.31105 3.09585,4.31105 2.76521,0 3.05542,-0.41918 2.71739,-3.92512 z m 8.20379,-0.30193 c 1.25146,-3.99836 0.37511,-5.78775 -1.41556,-2.89039 -0.57827,0.93566 -1.12345,0.85557 -1.81721,-0.26695 -0.54509,-0.882 -1.28293,-1.31179 -1.63962,-0.9551 -0.73663,0.73664 1.90895,8.33949 2.90192,8.33949 0.35609,0 1.2428,-1.90217 1.97047,-4.22705 z m 70.459956,2.49266 c 2.13227,-2.56923 -0.46527,-6.71971 -4.20547,-6.71971 -2.59694,0 -2.97683,0.53944 -2.97683,4.22705 0,3.64565 0.39495,4.22705 2.87145,4.22705 1.57928,0 3.51917,-0.78047 4.31085,-1.73439 z m 9.72591,1.10947 c 0,-1.56817 -2.89748,-7.82918 -3.62319,-7.82918 -0.72571,0 -3.62319,6.26101 -3.62319,7.82918 0,0.12229 1.63044,0.22235 3.62319,0.22235 1.99275,0 3.62319,-0.10012 3.62319,-0.22235 z m 6.77065,-3.60213 c 1.21796,-3.89129 0.25843,-6.17192 -1.14328,-2.71739 -0.46354,1.14239 -0.91277,1.07745 -1.84657,-0.26696 -0.6787,-0.97714 -1.63493,-1.37569 -2.12496,-0.88566 -0.49002,0.49002 -0.24783,1.53406 0.5382,2.32009 0.78603,0.78603 1.42915,2.40741 1.42915,3.60306 0,3.59015 1.73548,2.45807 3.14746,-2.05314 z m 13.76075,0 c 0,-3.4219 -0.46008,-4.22705 -2.41546,-4.22705 -1.3285,0 -2.41546,0.54348 -2.41546,1.20773 0,0.66425 0.57556,1.20773 1.27901,1.20773 0.70346,0 0.94312,0.54347 0.53259,1.20773 -0.41054,0.66425 -0.17087,1.20772 0.53258,1.20772 0.70345,0 1.27901,0.60162 1.27901,1.33695 0,0.73531 -0.81522,1.02412 -1.81159,0.64176 -0.99638,-0.38234 -1.8116,-0.16874 -1.8116,0.47465 0,0.64341 1.08696,1.16983 2.41546,1.16983 1.95538,0 2.41546,-0.80515 2.41546,-4.22705 z m 8.45411,0 c 0,-3.33469 -0.48021,-4.22705 -2.27467,-4.22705 -1.52124,0 -2.48452,1.0978 -2.90824,3.31437 -0.77802,4.0699 -0.18714,5.13973 2.83873,5.13973 1.87391,0 2.34418,-0.84799 2.34418,-4.22705 z M 575.0362,661.9408 c 2.14545,-2.58514 -0.0126,-5.93742 -3.8223,-5.93742 -2.95702,0 -4.33074,2.75675 -3.04429,6.10919 0.88919,2.31721 4.88384,2.21727 6.86659,-0.17177 z m 11.4078,-0.56059 c 1.00552,-3.1681 -1.49614,-6.20155 -4.73129,-5.73705 -2.58842,0.37165 -3.84585,3.41439 -2.67353,6.46941 1.03932,2.70844 6.48365,2.16998 7.40482,-0.73236 z m 7.0354,0.96375 c 0.46353,-1.14239 0.91276,-1.07745 1.84657,0.26696 1.52298,2.19267 2.33694,1.44618 3.73375,-3.42419 1.21336,-4.23075 0.51464,-4.84789 -1.89493,-1.67369 -1.52799,2.01289 -1.60623,2.01289 -1.64281,0 -0.0211,-1.16244 -0.58188,-2.11352 -1.24613,-2.11352 -0.66426,0 -1.22502,0.95108 -1.24614,2.11352 -0.0349,1.91916 -0.20034,1.8995 -1.79912,-0.21376 -2.32965,-3.07933 -2.86791,-2.17754 -1.5693,2.62922 1.09044,4.03617 2.73764,5.07825 3.81811,2.41546 z m 12.97985,-0.2059 c 2.23806,2.02541 2.30428,1.94433 2.14488,-2.62624 -0.0992,-2.84209 -0.3738,-3.62607 -0.69126,-1.97291 l -0.52678,2.74328 -2.28789,-2.74328 -2.28789,-2.74326 0.0999,4.83092 c 0.0549,2.657 0.35637,3.83882 0.6698,2.62623 0.54117,-2.09361 0.68621,-2.09939 2.87922,-0.11473 z m 9.32472,0.89671 c -1.22851,-0.32398 -2.23449,-2.07318 -2.5241,-4.38889 -0.46261,-3.69907 -0.48911,-3.67241 -0.6748,0.67876 -0.17011,3.98583 0.13261,4.51218 2.52411,4.38889 1.93083,-0.0995 2.12616,-0.29602 0.67479,-0.67876 z m 11.01128,-1.42977 c 1.54689,-2.89037 -0.99479,-6.64237 -4.08814,-6.03488 -3.38401,0.66457 -5.06678,4.06466 -3.15297,6.37068 2.14416,2.58354 5.76869,2.41546 7.24111,-0.3358 z m 9.75113,1.6237 c 0,-1.56817 -2.89748,-7.82918 -3.62319,-7.82918 -0.72571,0 -3.62319,6.26101 -3.62319,7.82918 0,0.12229 1.63043,0.22235 3.62319,0.22235 1.99275,0 3.62319,-0.10012 3.62319,-0.22235 z m 9.05797,-3.60213 c 0,-3.05477 -0.52105,-3.68314 -3.32126,-4.00534 -3.08383,-0.35483 -3.32125,-0.0685 -3.32125,4.00534 0,4.07385 0.23742,4.36017 3.32125,4.00534 2.80021,-0.3222 3.32126,-0.95057 3.32126,-4.00534 z m 11.79005,-0.79995 c -2.01456,-0.79691 -2.01534,-0.8464 -0.0147,-0.92675 2.94995,-0.11848 2.66233,-2.50035 -0.30188,-2.50035 -1.95408,0 -2.41546,0.80515 -2.41546,4.21523 0,4.10797 0.0618,4.16228 2.43014,2.13448 2.26566,-1.93991 2.28609,-2.13773 0.30194,-2.92261 z m 6.92975,3.6714 c 0,-0.97278 0.48264,-0.95506 1.709,0.0627 1.41942,1.17802 1.67522,0.74265 1.50966,-2.5695 -0.15702,-3.14155 -0.77602,-4.06976 -2.91672,-4.37378 -2.3826,-0.33839 -2.71739,0.1452 -2.71739,3.92512 0,2.37107 0.54347,4.31105 1.20773,4.31105 0.66425,0 1.20772,-0.61003 1.20772,-1.35561 z m 14.33034,-0.72674 c 1.54166,-2.75478 -0.42287,-6.37176 -3.46077,-6.37176 -3.16947,0 -5.49385,4.3885 -3.55912,6.71971 1.9622,2.3643 5.60303,2.18384 7.01989,-0.34795 z m 7.4088,-0.93698 c 0.99637,0 2.181,0.81522 2.6325,1.81159 0.47033,1.03795 0.85717,-0.18568 0.90579,-2.86526 0.0767,-4.2239 -0.10954,-4.51633 -1.9231,-3.01933 -1.56545,1.29223 -2.11998,1.32482 -2.5161,0.14788 -1.07308,-3.18827 -2.71844,-1.30465 -2.63739,3.01932 0.0493,2.62616 0.42978,3.76785 0.9058,2.71739 0.45149,-0.99637 1.63612,-1.81159 2.6325,-1.81159 z M 490.05054,403.03295 c 9.54236,-5.81831 9.94415,-18.132 0.82569,-25.30457 -3.04299,-2.39362 -4.63875,-2.5221 -31.32587,-2.5221 -27.586,0 -28.2336,-0.0572 -34.13088,-3.01932 -8.44376,-4.24107 -20.35097,-4.24317 -28.70465,-0.005 -3.50947,1.78047 -8.00799,3.01634 -10.99025,3.01932 -4.31819,0.005 -5.1047,-0.3882 -5.43479,-2.71233 -0.3598,-2.53347 -1.06031,-2.74114 -10.34969,-3.06817 l -9.96377,-0.35077 v -5.98981 -5.9898 h -7.24638 -7.24638 v -5.30386 c 0,-4.55189 0.40025,-5.40431 2.8231,-6.0124 4.54095,-1.13971 9.38774,-5.63183 11.79486,-10.93181 2.14055,-4.71302 2.23835,-11.69841 2.26374,-161.67686 0.0261,-154.152432 -0.0133,-156.829142 -2.37779,-161.463852 -1.32237,-2.5920603 -4.40493,-6.2388903 -6.85014,-8.1040603 l -4.44582,-3.39145002 -123.28272,-0.33372 c -110.54248,-0.29924 -123.8096,-0.13426 -128.381224,1.59644002 -5.98989,2.26761 -10.62663,7.333 -12.43663,13.5864003 -0.90035,3.11064 -1.18625,52.17471 -0.93797,160.963952 l 0.35716,156.48941 3.25007,4.91093 c 1.92747,2.91248 5.23224,5.82533 8.12101,7.15794 4.54919,2.09858 4.873024,2.58209 4.902114,7.31959 l 0.0312,5.07257 -6.944444,0.36221 -6.94445,0.3622 -0.36614,5.68892 -0.36616,5.6889 -9.89954,0.34974 c -9.22313,0.32584 -9.92592,0.53541 -10.28549,3.06713 l -0.38593,2.71739 h -27.2055 c -23.01654,0 -27.72038,0.30414 -30.5494101,1.97529 -4.54218,2.68313 -7.29448001,7.71682 -7.29448001,13.34088 0,5.43912 2.37631001,9.32088 7.68926001,12.56057 3.6912401,2.25081 9.6118801,2.30746 241.1030141,2.30746 233.24959,0 237.38513,-0.0405 241.18532,-2.35753 z"
   id="path570"
   inkscape:connector-curvature="0" /><path
   style="fill:none;stroke-width:1.20772946"
   d="M -270.45845,221.22077 V -278.17536 H 228.93768 728.33382 V 221.22077 720.61691 H 228.93768 -270.45845 Z m 106.28019,461.34218 0.60386,-6.02817 1.50917,4.10392 c 1.0604,2.88357 1.13274,4.55745 0.24328,5.62919 -1.98319,2.38959 0.69745,3.17645 2.74604,0.80605 1.46071,-1.69017 4.55948,-8.9754 4.55948,-10.71937 0,-1.65386 -2.68519,0.095 -3.49118,2.27391 l -0.99789,2.69755 -0.85617,-2.69755 c -0.4709,-1.48366 -1.63477,-2.69756 -2.58638,-2.69756 -0.95162,0 -1.73021,-0.81522 -1.73021,-1.8116 0,-0.99637 -0.54348,-1.81159 -1.20773,-1.81159 -0.66425,0 -1.20773,2.95705 -1.20773,6.57123 0,3.61418 -0.54348,6.90713 -1.20773,7.31766 -2.00187,1.23722 -1.35781,3.2249 0.9058,2.79546 1.57271,-0.29837 2.26804,-1.94348 2.71739,-6.42913 z m -46.54839,4.31973 c 0.38259,-0.61904 -0.75334,-1.29839 -2.5243,-1.50966 -7.01962,-0.83743 -6.7763,-8.64365 0.28146,-9.02982 2.29171,-0.1254 2.59286,0.004 0.87169,0.37443 -3.74105,0.80524 -5.99266,3.7552 -4.21957,5.52828 2.30041,2.30042 6.71211,2.371 8.34817,0.13355 1.38587,-1.89529 1.52041,-1.83622 1.52041,0.66764 0,3.99231 2.93432,2.48463 3.4294,-1.76205 l 0.41009,-3.51757 1.64514,3.91263 c 1.23146,2.92879 2.40394,3.91264 4.66275,3.91264 1.65969,0 3.50713,-0.87471 4.10542,-1.94379 0.99981,-1.78657 1.14813,-1.78657 1.8337,0 0.49072,1.27881 2.20499,1.94379 5.01086,1.94379 4.17063,0 4.26496,-0.10684 4.26496,-4.83091 0,-4.72407 -0.0943,-4.83092 -4.26496,-4.83092 -2.80587,0 -4.52014,0.66499 -5.01086,1.94379 -0.66452,1.73172 -0.85932,1.74114 -1.78543,0.0862 -1.56178,-2.79075 -14.26949,-2.64078 -14.38281,0.16974 -0.0614,1.52235 -0.40814,1.35047 -1.39229,-0.69014 -1.5382,-3.18942 -8.19508,-3.80747 -10.54266,-0.97883 -2.33209,2.81 -1.04264,8.28081 2.35485,9.99102 3.63892,1.83173 4.47629,1.89859 5.38398,0.42991 z m 33.26336,-7.93244 c 0,-3.65338 -0.54347,-6.64251 -1.20772,-6.64251 -0.66426,0 -1.20773,2.98913 -1.20773,6.64251 0,3.65338 0.54347,6.64251 1.20773,6.64251 0.66425,0 1.20772,-2.98913 1.20772,-6.64251 z m 8.21149,2.63164 c 1.74571,-4.82765 1.79291,-5.65096 0.32401,-5.65096 -0.61949,0 -1.515,1.22282 -1.99003,2.71739 l -0.86368,2.71739 -1.21386,-2.71739 c -1.18672,-2.65664 -3.2602,-3.7314 -3.2602,-1.68988 0,2.70835 2.81572,8.63432 4.10258,8.63432 0.79796,0 2.10349,-1.80489 2.90118,-4.01087 z m 106.561216,0.68962 c 0.0367,-3.17033 0.11848,-3.2155 1.79912,-0.99396 1.89991,2.5113 1.96918,2.49184 3.98628,-1.11957 1.21466,-2.17472 1.35278,-2.02426 1.38584,1.50966 0.0202,2.15882 0.58021,3.92512 1.24446,3.92512 0.66425,0 1.20773,-2.98913 1.20773,-6.64251 0,-7.15796 -1.14072,-8.21182 -4.24862,-3.92512 l -1.97014,2.71739 -1.86885,-2.71739 c -2.93952,-4.2742 -3.98968,-3.24103 -3.98968,3.92512 0,3.65338 0.54347,6.64251 1.20773,6.64251 0.66425,0 1.22501,-1.49456 1.24613,-3.32125 z m 20.493,-1.50966 c 0,-4.48586 -0.24155,-4.83092 -3.38165,-4.83092 -3.78107,0 -6.28019,1.92239 -6.28019,4.83092 0,2.90852 2.49912,4.83091 6.28019,4.83091 3.1401,0 3.38165,-0.34506 3.38165,-4.83091 z m 14.33087,-2.0034 c -0.13492,-4.1286 -0.69909,-6.35595 -1.53537,-6.0616 -0.72713,0.25594 -1.1645,1.3508 -0.97192,2.43303 0.28251,1.58756 -0.35851,1.82595 -3.31826,1.23399 -4.07407,-0.8148 -7.2976,1.0865 -7.2976,4.3043 0,3.35988 2.51926,4.83435 8.06952,4.72294 l 5.26691,-0.10568 -0.21328,-6.52694 z m 4.00678,3.6062 c 0.55662,-4.70185 3.40148,-5.11645 3.40148,-0.49571 0,2.0481 0.57628,3.72382 1.28064,3.72382 0.74132,0 1.12277,-1.90725 0.90579,-4.52898 -0.34221,-4.13476 -0.71651,-4.56193 -4.29996,-4.90744 -3.84645,-0.37087 -3.92512,-0.28009 -3.92512,4.52898 0,5.45137 2.03706,6.74854 2.63717,1.67933 z m 13.06331,1.77884 c 0,-1.12721 0.32207,-1.12721 1.4492799,0 2.13569,2.13569 6.70271,1.76189 8.11582,-0.66425 1.16044999,-1.99237 1.23312999,-1.98777 1.26773999,0.0802 0.028,1.67418 0.82335,2.10324 3.35798001,1.81159 2.93093,-0.33723 3.31458,-0.87892 3.26439,-4.6092 -0.046,-3.41599 -0.5684,-4.30124 -2.72279,-4.61369 -1.56718,-0.22729 -2.96092001,0.38212 -3.38169001,1.47862 -0.63069,1.64356 -0.92741,1.65363 -2.49632999,0.0847 -2.06785,-2.06785 -5.94522,-2.34876 -7.07983,-0.51291 -0.47825,0.77383 -1.7086999,0.20083 -3.1585999,-1.47092 -3.87249,-4.46502 -5.35605,-0.006 -2.78005,8.35545 0.59482,1.93078 4.16408,1.98255 4.16408,0.0604 z m 21.96085,-1.6076 c 0.52158,-4.17217 2.70919,-4.35406 3.17976,-0.26438 0.58454,5.08017 2.83514,3.95145 2.40815,-1.20773 -0.3011,-3.63795 -0.90947,-4.60492 -3.09224,-4.91492 -1.49456,-0.21226 -2.71739,-1.16334 -2.71739,-2.11352 0,-0.95019 -0.54348,-1.7276 -1.2077301,-1.7276 -0.66425,0 -1.20773,2.98913 -1.20773,6.64251 0,6.67666 1.9237601,9.2923 2.6371801,3.58564 z M 571.32899,678.8496 c 0,-4.27231 -0.47574,-6.58458 -1.29831,-6.31039 -0.71407,0.23802 -1.25755,0.82679 -1.20773,1.30837 0.0498,0.48159 0.0906,3.32126 0.0906,6.31039 0,2.98913 0.54347,5.43478 1.20773,5.43478 0.66425,0 1.20773,-3.03442 1.20773,-6.74315 z m 3.62318,0.10061 c 0,-3.65339 -0.54347,-6.64252 -1.20773,-6.64252 -0.66425,0 -1.20773,2.98913 -1.20773,6.64252 0,3.65338 0.54348,6.64251 1.20773,6.64251 0.66426,0 1.20773,-2.98913 1.20773,-6.64251 z m 4.83092,0 c 0,-5.0993 -0.42087,-6.64252 -1.81159,-6.64252 -1.39073,0 -1.8116,1.54322 -1.8116,6.64252 0,5.09929 0.42087,6.64251 1.8116,6.64251 1.39072,0 1.81159,-1.54322 1.81159,-6.64251 z m 3.62319,0 c 0,-3.65339 -0.54348,-6.64252 -1.20773,-6.64252 -0.66425,0 -1.20773,2.98913 -1.20773,6.64252 0,3.65338 0.54348,6.64251 1.20773,6.64251 0.66425,0 1.20773,-2.98913 1.20773,-6.64251 z m 18.84972,5.22456 c 0.41062,-0.66438 0.14175,-1.8128 -0.59746,-2.55202 -1.87521,-1.87517 -1.67525,-3.27637 0.46755,-3.27637 1.20773,0 1.81159,1.20773 1.81159,3.62319 0,2.81803 0.53676,3.62318 2.41546,3.62318 1.3285,0 2.41546,-0.54347 2.41546,-1.20773 0,-0.66425 -0.54348,-1.20773 -1.20773,-1.20773 -1.74586,0 -1.48837,-4.53608 0.29115,-5.12925 1.07774,-0.35925 0.90808,-1.09043 -0.60387,-2.60238 -1.76069,-1.76068 -2.3668,-1.83868 -3.72601,-0.47945 -0.96193,0.96193 -3.91422,1.54616 -7.24638,1.434 -5.43627,-0.183 -5.6231,-0.0735 -5.6231,3.2939 0,4.38642 -2.12377,4.59183 -2.63718,0.25507 -0.58755,-4.96321 -3.40147,-5.04027 -3.40147,-0.0931 0,2.26953 0.34163,4.46804 0.75918,4.88559 1.24214,1.24214 16.07255,0.74423 16.88281,-0.56682 z m 10.13579,-1.60134 c 0,-3.75385 1.45685,-3.89879 3.03486,-0.30193 0.87628,1.99733 2.3923,2.81671 5.72118,3.09223 4.37305,0.36192 4.5339,0.23718 4.67187,-3.62319 l 0.1429,-3.99803 0.77221,3.60844 c 0.42472,1.98464 1.62682,3.77302 2.67135,3.97418 1.52872,0.29441 1.85434,-0.71019 1.66936,-5.15038 -0.27115,-6.50878 -1.01692,-7.58463 -3.70891,-5.35047 -1.09547,0.90916 -3.58163,1.48625 -5.5248,1.28242 -1.94316,-0.20383 -4.32087,0.28326 -5.28379,1.08243 -1.23666,1.02633 -1.75077,1.05493 -1.75077,0.0974 0,-0.74558 -1.08696,-1.3556 -2.41546,-1.3556 -2.01289,0 -2.41546,0.80515 -2.41546,4.83092 0,2.657 0.54348,4.83091 1.20773,4.83091 0.66425,0 1.20773,-1.35869 1.20773,-3.01932 z m 22.94686,-2.41546 c 0,-2.98913 0.0408,-5.8288 0.0906,-6.31039 0.0498,-0.48158 -0.49366,-1.07035 -1.20773,-1.30837 -0.82257,-0.27419 -1.29831,2.03808 -1.29831,6.31039 0,3.70873 0.54348,6.74315 1.20773,6.74315 0.66425,0 1.20773,-2.44565 1.20773,-5.43478 z m 10.77282,3.32126 c 1.17241,-2.01289 1.23277,-2.01289 1.26774,0 0.0202,1.16244 0.85195,2.11352 1.84833,2.11352 1.20773,0 1.81159,-1.20773 1.81159,-3.62318 0,-1.99276 0.54348,-3.62319 1.20773,-3.62319 0.66425,0 1.20773,1.57005 1.20773,3.48899 v 3.489 h 7.90616 c 5.37677,0 7.75947,-0.44005 7.44766,-1.37547 -0.25217,-0.75651 -0.95668,-1.38379 -1.56557,-1.39396 -2.41148,-0.0403 -3.86803,-1.91641 -3.26831,-4.20977 0.50854,-1.94466 0.0362,-2.41425 -2.4282,-2.41425 -1.68274,0 -3.30862,0.67935 -3.61308,1.50966 -0.44283,1.20773 -0.87359,1.20773 -2.15378,0 -2.35726,-2.22383 -8.36353,-1.94505 -8.36353,0.3882 0,1.72533 -0.17253,1.72533 -1.89786,0 -3.41548,-3.41548 -8.9717,-1.59903 -8.9717,2.93306 0,4.64129 7.2456,6.69973 9.56509,2.71739 z m 32.46389,0.66425 c 1.12721,-1.12721 1.44928,-1.11021 1.44928,0.0766 0,0.99389 1.36833,1.39386 3.92512,1.14734 3.43594,-0.33129 3.92512,-0.8136 3.92512,-3.87001 0,-4.49347 -3.24376,-6.76152 -6.63833,-4.64157 -1.93694,1.20962 -2.90235,1.20962 -4.83928,0 -4.45261,-2.7807 -9.34917,2.93144 -5.98632,6.98342 1.76467,2.12628 6.17794,2.29077 8.16441,0.3043 z m -890.44054,-22.76327 c 0.9437,-2.97334 -1.26546,-5.98069 -4.39333,-5.98069 -1.78636,0 -2.26758,0.89704 -2.26758,4.22705 0,3.67248 0.38545,4.22705 2.93794,4.22705 1.90019,0 3.21523,-0.87367 3.72297,-2.47341 z m 7.52991,1.64089 c -2.41611,-0.63139 -2.87826,-2.78129 -0.60386,-2.80916 1.00644,-0.0123 0.9058,-0.40874 -0.30193,-1.18923 -1.20773,-0.7805 -1.30838,-1.17691 -0.30194,-1.18924 0.83032,-0.0102 1.50967,-0.56197 1.50967,-1.22622 0,-0.66425 -1.08696,-1.20773 -2.41546,-1.20773 -1.95537,0 -2.41546,0.80515 -2.41546,4.22705 0,3.84014 0.304,4.21423 3.32125,4.08696 2.04336,-0.0862 2.50805,-0.35261 1.20773,-0.69243 z m 9.47314,-0.55842 c 0.47281,-0.76502 -0.14247,-2.12372 -1.36728,-3.01932 -1.22482,-0.89562 -1.57959,-1.62838 -0.78838,-1.62838 0.79121,0 1.43856,-0.54348 1.43856,-1.20773 0,-0.66425 -1.08695,-1.20773 -2.41546,-1.20773 -3.01161,0 -3.18765,3.32453 -0.30193,5.70216 2.01288,1.65848 2.01288,1.70976 0,1.07685 -1.16244,-0.36551 -2.11353,-0.13813 -2.11353,0.50526 0,1.64307 4.50691,1.46344 5.54802,-0.22111 z m 3.76027,-4.93555 c -0.28888,-1.50231 -0.5362,-0.55756 -0.54961,2.09944 -0.0134,2.657 0.22295,3.88617 0.52524,2.73147 0.30228,-1.15469 0.31325,-3.32861 0.0244,-4.83091 z m 11.22312,5.82141 c 0,-0.2778 0.32988,-1.36476 0.73307,-2.41546 0.52553,-1.36951 0.0126,-1.91037 -1.81159,-1.91037 -1.39957,0 -2.54467,0.54347 -2.54467,1.20772 0,0.66426 -0.58877,1.20773 -1.30838,1.20773 -2.4156,0 -0.35647,-2.94416 2.60565,-3.72556 2.5311,-0.6677 2.64218,-0.89524 0.81625,-1.67219 -3.17826,-1.35237 -5.73671,0.1403 -5.73671,3.34697 0,1.57076 0.36232,3.21826 0.80515,3.66109 0.87087,0.87087 6.44123,1.13036 6.44123,0.30007 z m 6.03864,-0.85052 c 0,-0.99713 0.42862,-0.9999 1.62079,-0.0109 2.02521,1.68117 3.21013,0.57714 3.21013,-2.99059 0,-3.24373 -2.39767,-5.25146 -2.45387,-2.0548 -0.0364,2.07235 -0.12099,2.07602 -1.6428,0.0713 -2.37193,-3.1246 -3.14971,-2.60269 -3.14971,2.11355 0,2.32488 0.54348,4.22705 1.20773,4.22705 0.66425,0 1.20773,-0.61002 1.20773,-1.3556 z m 11.77537,0.52308 c -2.41612,-0.63139 -2.87827,-2.78129 -0.60387,-2.80916 1.00644,-0.0123 0.9058,-0.40874 -0.30193,-1.18923 -1.20773,-0.7805 -1.30837,-1.17691 -0.30193,-1.18924 0.83031,-0.0102 1.50966,-0.56197 1.50966,-1.22622 0,-0.66425 -1.08696,-1.20773 -2.41546,-1.20773 -1.95537,0 -2.41546,0.80515 -2.41546,4.22705 0,3.84014 0.304,4.21423 3.32126,4.08696 2.04335,-0.0862 2.50804,-0.35261 1.20773,-0.69243 z m 10.37425,-1.78364 c 1.56315,-2.49438 -0.83175,-5.83794 -4.18156,-5.83794 -1.79478,0 -2.26757,0.89886 -2.26757,4.31105 0,3.72462 0.35286,4.25855 2.59404,3.92512 1.42673,-0.21226 3.16152,-1.29146 3.85509,-2.39823 z m 13.85686,-1.30896 c -0.29006,-3.00839 -1.01312,-4.01525 -3.09585,-4.31105 -2.3826,-0.33838 -2.71739,0.14521 -2.71739,3.92512 0,3.82172 0.3514,4.31105 3.09585,4.31105 2.76521,0 3.05542,-0.41918 2.71739,-3.92512 z m 8.20379,-0.30193 c 1.25146,-3.99836 0.37511,-5.78775 -1.41556,-2.89039 -0.57827,0.93566 -1.12345,0.85557 -1.81721,-0.26695 -0.54509,-0.882 -1.28293,-1.31179 -1.63962,-0.9551 -0.73663,0.73664 1.90895,8.33949 2.90192,8.33949 0.35609,0 1.2428,-1.90217 1.97047,-4.22705 z m 70.459956,2.49266 c 2.13227,-2.56923 -0.46527,-6.71971 -4.20547,-6.71971 -2.59694,0 -2.97683,0.53944 -2.97683,4.22705 0,3.64565 0.39495,4.22705 2.87145,4.22705 1.57928,0 3.51917,-0.78047 4.31085,-1.73439 z m 9.72591,1.10947 c 0,-1.56817 -2.89748,-7.82918 -3.62319,-7.82918 -0.72571,0 -3.62319,6.26101 -3.62319,7.82918 0,0.12229 1.63044,0.22235 3.62319,0.22235 1.99275,0 3.62319,-0.10012 3.62319,-0.22235 z m 6.77065,-3.60213 c 1.21796,-3.89129 0.25843,-6.17192 -1.14328,-2.71739 -0.46354,1.14239 -0.91277,1.07745 -1.84657,-0.26696 -0.6787,-0.97714 -1.63493,-1.37569 -2.12496,-0.88566 -0.49002,0.49002 -0.24783,1.53406 0.5382,2.32009 0.78603,0.78603 1.42915,2.40741 1.42915,3.60306 0,3.59015 1.73548,2.45807 3.14746,-2.05314 z m 13.76075,0 c 0,-3.4219 -0.46008,-4.22705 -2.41546,-4.22705 -1.3285,0 -2.41546,0.54348 -2.41546,1.20773 0,0.66425 0.57556,1.20773 1.27901,1.20773 0.70346,0 0.94312,0.54347 0.53259,1.20773 -0.41054,0.66425 -0.17087,1.20772 0.53258,1.20772 0.70345,0 1.27901,0.60162 1.27901,1.33695 0,0.73531 -0.81522,1.02412 -1.81159,0.64176 -0.99638,-0.38234 -1.8116,-0.16874 -1.8116,0.47465 0,0.64341 1.08696,1.16983 2.41546,1.16983 1.95538,0 2.41546,-0.80515 2.41546,-4.22705 z m 8.45411,0 c 0,-3.33469 -0.48021,-4.22705 -2.27467,-4.22705 -1.52124,0 -2.48452,1.0978 -2.90824,3.31437 -0.77802,4.0699 -0.18714,5.13973 2.83873,5.13973 1.87391,0 2.34418,-0.84799 2.34418,-4.22705 z M 575.0362,661.9408 c 2.14545,-2.58514 -0.0126,-5.93742 -3.8223,-5.93742 -2.95702,0 -4.33074,2.75675 -3.04429,6.10919 0.88919,2.31721 4.88384,2.21727 6.86659,-0.17177 z m 11.4078,-0.56059 c 1.00552,-3.1681 -1.49614,-6.20155 -4.73129,-5.73705 -2.58842,0.37165 -3.84585,3.41439 -2.67353,6.46941 1.03932,2.70844 6.48365,2.16998 7.40482,-0.73236 z m 7.0354,0.96375 c 0.46353,-1.14239 0.91276,-1.07745 1.84657,0.26696 1.52298,2.19267 2.33694,1.44618 3.73375,-3.42419 1.21336,-4.23075 0.51464,-4.84789 -1.89493,-1.67369 -1.52799,2.01289 -1.60623,2.01289 -1.64281,0 -0.0211,-1.16244 -0.58188,-2.11352 -1.24613,-2.11352 -0.66426,0 -1.22502,0.95108 -1.24614,2.11352 -0.0349,1.91916 -0.20034,1.8995 -1.79912,-0.21376 -2.32965,-3.07933 -2.86791,-2.17754 -1.5693,2.62922 1.09044,4.03617 2.73764,5.07825 3.81811,2.41546 z m 12.97985,-0.2059 c 2.23806,2.02541 2.30428,1.94433 2.14488,-2.62624 -0.0992,-2.84209 -0.3738,-3.62607 -0.69126,-1.97291 l -0.52678,2.74328 -2.28789,-2.74328 -2.28789,-2.74326 0.0999,4.83092 c 0.0549,2.657 0.35637,3.83882 0.6698,2.62623 0.54117,-2.09361 0.68621,-2.09939 2.87922,-0.11473 z m 9.32472,0.89671 c -1.22851,-0.32398 -2.23449,-2.07318 -2.5241,-4.38889 -0.46261,-3.69907 -0.48911,-3.67241 -0.6748,0.67876 -0.17011,3.98583 0.13261,4.51218 2.52411,4.38889 1.93083,-0.0995 2.12616,-0.29602 0.67479,-0.67876 z m 11.01128,-1.42977 c 1.54689,-2.89037 -0.99479,-6.64237 -4.08814,-6.03488 -3.38401,0.66457 -5.06678,4.06466 -3.15297,6.37068 2.14416,2.58354 5.76869,2.41546 7.24111,-0.3358 z m 9.75113,1.6237 c 0,-1.56817 -2.89748,-7.82918 -3.62319,-7.82918 -0.72571,0 -3.62319,6.26101 -3.62319,7.82918 0,0.12229 1.63043,0.22235 3.62319,0.22235 1.99275,0 3.62319,-0.10012 3.62319,-0.22235 z m 9.05797,-3.60213 c 0,-3.05477 -0.52105,-3.68314 -3.32126,-4.00534 -3.08383,-0.35483 -3.32125,-0.0685 -3.32125,4.00534 0,4.07385 0.23742,4.36017 3.32125,4.00534 2.80021,-0.3222 3.32126,-0.95057 3.32126,-4.00534 z m 11.79005,-0.79995 c -2.01456,-0.79691 -2.01534,-0.8464 -0.0147,-0.92675 2.94995,-0.11848 2.66233,-2.50035 -0.30188,-2.50035 -1.95408,0 -2.41546,0.80515 -2.41546,4.21523 0,4.10797 0.0618,4.16228 2.43014,2.13448 2.26566,-1.93991 2.28609,-2.13773 0.30194,-2.92261 z m 6.92975,3.6714 c 0,-0.97278 0.48264,-0.95506 1.709,0.0627 1.41942,1.17802 1.67522,0.74265 1.50966,-2.5695 -0.15702,-3.14155 -0.77602,-4.06976 -2.91672,-4.37378 -2.3826,-0.33839 -2.71739,0.1452 -2.71739,3.92512 0,2.37107 0.54347,4.31105 1.20773,4.31105 0.66425,0 1.20772,-0.61003 1.20772,-1.35561 z m 14.33034,-0.72674 c 1.54166,-2.75478 -0.42287,-6.37176 -3.46077,-6.37176 -3.16947,0 -5.49385,4.3885 -3.55912,6.71971 1.9622,2.3643 5.60303,2.18384 7.01989,-0.34795 z m 7.4088,-0.93698 c 0.99637,0 2.181,0.81522 2.6325,1.81159 0.47033,1.03795 0.85717,-0.18568 0.90579,-2.86526 0.0767,-4.2239 -0.10954,-4.51633 -1.9231,-3.01933 -1.56545,1.29223 -2.11998,1.32482 -2.5161,0.14788 -1.07308,-3.18827 -2.71844,-1.30465 -2.63739,3.01932 0.0493,2.62616 0.42978,3.76785 0.9058,2.71739 0.45149,-0.99637 1.63612,-1.81159 2.6325,-1.81159 z M 490.05054,403.03295 c 9.54236,-5.81831 9.94415,-18.132 0.82569,-25.30457 -3.04299,-2.39362 -4.63875,-2.5221 -31.32587,-2.5221 -27.586,0 -28.2336,-0.0572 -34.13088,-3.01932 -8.44376,-4.24107 -20.35097,-4.24317 -28.70465,-0.005 -3.50947,1.78047 -8.00799,3.01634 -10.99025,3.01932 -4.31819,0.005 -5.1047,-0.3882 -5.43479,-2.71233 -0.3598,-2.53347 -1.06031,-2.74114 -10.34969,-3.06817 l -9.96377,-0.35077 v -5.98981 -5.9898 h -7.24638 -7.24638 v -5.30386 c 0,-4.55189 0.40025,-5.40431 2.8231,-6.0124 4.54095,-1.13971 9.38774,-5.63183 11.79486,-10.93181 2.14055,-4.71302 2.23835,-11.69841 2.26374,-161.67686 0.0261,-154.152432 -0.0133,-156.829142 -2.37779,-161.463852 -1.32237,-2.5920603 -4.40493,-6.2388903 -6.85014,-8.1040603 l -4.44582,-3.39145002 -123.28272,-0.33372 c -110.54248,-0.29924 -123.8096,-0.13426 -128.381224,1.59644002 -5.98989,2.26761 -10.62663,7.333 -12.43663,13.5864003 -0.90035,3.11064 -1.18625,52.17471 -0.93797,160.963952 l 0.35716,156.48941 3.25007,4.91093 c 1.92747,2.91248 5.23224,5.82533 8.12101,7.15794 4.54919,2.09858 4.873024,2.58209 4.902114,7.31959 l 0.0312,5.07257 -6.944444,0.36221 -6.94445,0.3622 -0.36614,5.68892 -0.36616,5.6889 -9.89954,0.34974 c -9.22313,0.32584 -9.92592,0.53541 -10.28549,3.06713 l -0.38593,2.71739 h -27.2055 c -23.01654,0 -27.72038,0.30414 -30.5494101,1.97529 -4.54218,2.68313 -7.29448001,7.71682 -7.29448001,13.34088 0,5.43912 2.37631001,9.32088 7.68926001,12.56057 3.6912401,2.25081 9.6118801,2.30746 241.1030141,2.30746 233.24959,0 237.38513,-0.0405 241.18532,-2.35753 z"
   id="path572"
   inkscape:connector-curvature="0" /></svg>